<svg width="224" height="257" viewBox="0 0 224 257" fill="none" xmlns="http://www.w3.org/2000/svg">
<path d="M57.3649 142.982C63.5574 127.431 71.4424 112.978 84.1262 101.614C86.7545 99.2614 89.562 97.208 92.4093 95.1545C95.1771 93.141 95.2567 93.0612 93.1859 90.3698C87.75 83.2924 81.8961 76.534 75.5642 70.2342C58.261 52.9893 39.8626 37.0601 19.5129 23.4636C15.2717 20.6326 11.0306 17.8216 6.37125 15.6884C4.63894 14.891 2.98629 13.8742 1.7916 12.2993C-0.239391 9.64772 -0.597849 6.79683 0.995082 3.80639C2.50837 0.955496 4.99737 -0.160937 8.14341 0.0184897C9.77617 0.118171 11.2297 0.676388 12.6832 1.37416C19.5726 4.76333 26.024 8.87021 32.2564 13.2761C55.8716 30.0027 77.5553 48.9422 96.8099 70.5731C100.732 74.979 104.516 79.5245 107.881 84.3491C109.932 87.2797 111.983 88.4759 115.666 88.4559C128.33 88.3961 140.695 90.6489 152.762 94.4568C162.18 97.4273 170.304 102.75 177.751 109.09C195.651 124.321 208.952 143.022 218.689 164.334C220.74 168.839 222.094 173.604 223.269 178.409C225.26 186.582 223.149 193.46 217.375 199.461C210.446 206.658 202.282 212.181 193.74 217.185C171.379 230.263 147.644 240.251 123.272 248.844C114.71 251.874 106.049 254.585 97.1483 256.439C94.958 256.898 92.7479 257.137 90.4979 256.918C87.551 256.639 84.8031 255.702 82.9912 253.229C70.0685 235.486 58.5796 216.965 53.6813 195.175C50.2167 179.784 50.5153 164.493 55.6127 149.401C56.3295 147.328 56.7875 145.135 57.3649 142.982ZM101.21 125.278C97.9847 134.03 96.4117 143.121 96.113 152.412C95.2369 180.661 103.978 206.379 116.96 230.921C118.553 233.931 118.772 234.031 122.277 232.735C130.48 229.685 138.644 226.515 146.748 223.245C151.089 221.491 151.248 220.893 149.616 216.367C146.589 207.974 143.582 199.581 140.536 191.208C132.412 168.879 123.272 147.009 111.963 126.076C110.609 123.564 109.195 121.052 107.781 118.56C107.244 117.623 106.965 116.207 105.69 116.207C104.078 116.227 103.978 117.882 103.52 118.998C102.684 121.052 101.987 123.185 101.21 125.278ZM128.191 121.969C127.733 123.663 128.728 124.66 129.266 125.757C133.766 135.087 138.465 144.298 142.447 153.867C145.514 161.223 148.62 168.56 151.388 176.036C155.709 187.699 159.93 199.382 164.211 211.044C165.385 214.254 165.704 214.413 168.671 213.078C174.625 210.386 180.319 207.177 185.914 203.827C189.12 201.913 188.961 201.814 187.507 198.106C183.386 187.519 178.149 177.511 172.414 167.743C162.538 150.916 150.312 136.164 133.925 125.218C132.133 124.022 130.341 122.766 128.191 121.969ZM83.9271 125.458C83.3895 126.195 82.812 126.913 82.2943 127.671C77.1969 135.286 74.0707 143.819 71.0043 152.372C66.2853 165.51 65.688 178.867 68.9136 192.364C73.0353 209.549 81.8363 224.481 91.7125 238.855C92.4492 239.952 93.3254 240.869 94.759 240.849C97.1683 240.809 99.4781 240.191 101.708 239.314C102.843 238.875 102.963 237.978 102.505 236.981C102.066 235.965 101.569 234.948 101.111 233.951C97.248 225.558 93.1461 217.284 90.0996 208.532C80.7014 181.499 77.1571 154.066 83.9271 125.458ZM132.153 105.661C133.009 106.359 133.308 106.678 133.686 106.877C158.058 120.593 175.322 140.988 188.722 165.131C193.063 172.946 196.726 181.06 200.569 189.114C201.963 192.025 202.839 192.065 205.169 190.051C208.693 187.021 208.952 183.373 207.678 179.206C203.994 167.184 197.861 156.399 190.693 146.191C182.43 134.369 172.852 123.783 160.786 115.629C152.304 109.907 142.905 106.897 132.153 105.661Z" fill="#E5E5E5" fill-opacity="0.15"/>
</svg>
