<svg width="114" height="94" viewBox="0 0 114 94" fill="none" xmlns="http://www.w3.org/2000/svg">
<path d="M0.000838365 31.7916C-0.0134946 28.0806 0.144214 24.4598 1.39119 20.9441C4.21479 12.9663 11.4959 10.4273 18.3041 15.1749C21.3571 17.3083 23.722 20.223 25.8577 23.333C28.0649 26.5632 29.8135 30.0638 31.6195 33.5494C33.6404 37.4707 35.5898 37.6059 38.0264 33.94C39.6747 31.446 41.0506 28.7417 42.3836 26.0373C45.0638 20.6286 47.5721 15.1298 50.2524 9.72112C51.7287 6.74634 53.4487 3.89176 55.957 1.71326C58.8379 -0.780748 61.9625 -0.540363 64.4565 2.35929C66.0331 4.19224 67.1224 6.37074 67.839 8.69948C69.3297 13.4772 70.7486 18.2698 72.1962 23.0625C72.9845 25.6767 73.5865 28.3661 74.8908 30.7699C76.8975 34.4508 79.7354 34.9767 82.8027 32.2723C84.5943 30.6948 86.085 28.8018 87.2889 26.7134C89.7685 22.4165 92.2051 18.0896 94.6131 13.7326C96.2184 10.8179 97.8811 7.94827 100.031 5.45427C103.801 1.0522 107.298 1.33765 110.179 6.37074C113.604 12.3353 114.593 18.8558 113.676 25.7368C112.128 37.2904 107.785 47.7021 101.722 57.3326C93.3518 70.629 83.0464 81.8219 69.1434 88.8833C49.4641 98.8893 29.2116 94.0366 15.7242 75.9325C6.06375 62.9817 0.588492 48.3181 0.000838365 31.7916Z" fill="#E5E5E5" fill-opacity="0.15"/>
</svg>
