<svg width="159" height="246" viewBox="0 0 159 246" fill="none" xmlns="http://www.w3.org/2000/svg">
<path d="M35.4603 144.539C34.8162 141.247 34.1004 137.956 34.2579 134.575C34.3581 132.301 34.3295 129.787 36.6199 128.605C38.8244 127.468 40.8428 128.77 42.7181 129.952C44.4216 131.029 45.71 132.615 46.9554 134.216C52.7244 141.636 56.5322 150.119 59.3093 159.156C60.9555 164.527 62.4729 169.927 62.4729 175.643C62.4729 177.498 62.3584 179.338 61.7572 181.088C60.7265 184.095 58.4933 185.247 55.6017 184.275C53.8982 183.706 52.4667 182.674 51.1497 181.402C47.4278 177.812 44.7365 173.458 42.7611 168.641C39.5831 160.861 37.1209 152.827 35.4603 144.539Z" fill="#E5E5E5" fill-opacity="0.15"/>
<path d="M147.103 217.473C148.635 223.054 149.108 228.754 148.936 234.529C148.864 237.057 148.607 239.571 147.719 241.95C146.245 245.854 143.625 246.917 140.003 245.002C138.815 244.373 137.698 243.55 136.711 242.623C124.815 231.507 118.602 217.473 117.643 200.942C117.285 194.658 117.342 188.329 118.13 182.061C118.459 179.413 118.874 176.78 119.991 174.356C121.651 170.765 124.185 170.182 127.091 172.74C128.952 174.371 130.426 176.376 131.7 178.53C137.326 187.955 141.85 197.949 145.328 208.437C146.273 211.324 146.531 214.451 147.103 217.473Z" fill="#E5E5E5" fill-opacity="0.15"/>
<path d="M157.224 135.772C158.727 141.831 159.028 147.665 158.527 153.575C158.298 156.268 157.668 158.826 156.337 161.145C154.647 164.078 152.386 164.721 149.494 163.09C146.473 161.385 144.34 158.677 142.422 155.774C137.369 148.114 133.676 139.736 130.813 130.969C128.952 125.284 126.847 119.674 125.831 113.704C125.402 111.206 125.244 108.692 125.616 106.194C126.189 102.349 128.479 100.613 132.158 101.182C134.449 101.541 136.496 102.588 138.428 103.89C147.805 110.158 153.588 119.09 156.179 130.341C156.608 132.226 156.909 134.156 157.224 135.772Z" fill="#E5E5E5" fill-opacity="0.15"/>
<path d="M109.913 34.6953C111.416 40.7545 111.717 46.5893 111.216 52.4988C110.987 55.1918 110.357 57.7501 109.025 60.0691C107.336 63.0014 105.075 63.6447 102.183 62.014C99.1624 60.3085 97.0294 57.6005 95.1112 54.6981C90.058 47.0381 86.3647 38.66 83.5017 29.8929C81.6407 24.2077 79.5364 18.5973 78.52 12.6279C78.0905 10.1294 77.9331 7.61597 78.3053 5.11749C78.8779 1.27252 81.1683 -0.462935 84.8473 0.105581C87.1377 0.464644 89.1847 1.51191 91.1173 2.81351C100.494 9.08215 106.277 18.0138 108.868 29.2645C109.297 31.1346 109.598 33.0646 109.913 34.6953Z" fill="#E5E5E5" fill-opacity="0.15"/>
<path d="M72.1064 93.7612C71.5624 88.6296 70.5603 83.513 71.2761 78.3215C71.634 75.7033 71.906 72.8009 74.7403 71.6938C77.7465 70.5119 79.7793 72.756 81.8549 74.4915C83.129 75.5537 84.0022 76.99 84.7609 78.4711C92.305 93.3124 99.6343 108.243 104.63 124.282C105.589 127.364 106.276 130.49 106.119 133.752C105.904 138.734 103.385 140.634 98.9185 138.988C93.5933 137.043 89.2558 133.602 85.9347 128.83C80.7527 121.379 77.2598 113.076 74.8692 104.264C73.9387 100.793 72.5931 97.3968 72.1064 93.7612Z" fill="#E5E5E5" fill-opacity="0.15"/>
<path d="M20.0854 149.386C20.8155 152.588 21.1018 155.789 20.6724 159.051C20.2859 161.923 19.1693 164.272 16.3063 165.155C13.2858 166.083 10.5802 165.439 8.34706 163.001C4.99733 159.335 3.49425 154.712 2.42061 149.955C0.287665 140.425 -0.127481 130.7 0.0299853 120.945C0.0299853 120.736 0.0443096 120.511 0.0729398 120.302C0.316296 118.746 0.0729314 116.771 1.97684 116.248C3.69465 115.769 4.8828 117.145 5.91349 118.342C8.21822 121.005 10.0792 123.982 11.7397 127.109C15.5189 134.141 18.3247 141.547 20.0854 149.386Z" fill="#E5E5E5" fill-opacity="0.15"/>
</svg>
