<svg width="336" height="115" viewBox="0 0 336 115" fill="none" xmlns="http://www.w3.org/2000/svg">
<path d="M316.521 60.4431C300.854 58.5287 289.509 51.4421 281.282 39.2762C279.693 36.9294 277.902 34.7216 276.173 32.4675C273.904 29.5032 270.818 27.805 267.283 26.786C263.717 25.7516 260.476 26.2919 257.497 28.5769C252.836 32.1433 249.347 36.8059 245.705 41.3141C241.831 46.1157 238.142 51.0716 233.094 54.7924C226.21 59.8873 218.863 61.2305 210.775 58.05C203.413 55.1475 197.131 50.6702 191.374 45.3437C187.577 41.8236 184.088 37.9638 180.013 34.7371C178.655 33.6718 177.312 32.5602 175.831 31.6956C168.638 27.419 161.63 27.4807 154.777 32.6219C150.224 36.034 146.057 39.8938 141.951 43.7998C139.08 46.5325 136.07 49.0799 132.89 51.4267C127.427 55.4871 121.453 57.2163 114.492 56.4598C102.252 55.1475 92.2502 49.574 83.3133 41.5612C81.4766 39.9092 79.6089 38.2881 77.7259 36.7133C76.5837 35.7715 75.3334 34.9532 73.8825 34.5518C69.252 33.2704 65.1154 33.5483 62.0439 37.933C60.7782 39.7548 59.2192 41.3604 57.7838 43.0587C51.7178 50.207 44.0158 54.53 34.9091 56.4907C27.7164 58.0501 20.4466 58.05 13.1767 57.2781C8.90125 56.8149 5.04245 55.2401 2.51111 51.3958C-0.298059 47.1346 -0.930901 42.7036 1.5387 38.1182C3.94655 33.61 7.74363 31.1552 12.8989 31.1398C15.9859 31.1398 19.0575 31.3096 22.1445 31.4795C29.2137 31.85 35.3259 30.1671 39.6477 24.0224C41.0523 22.0153 42.8427 20.2707 44.4634 18.4026C54.6968 6.69979 71.8605 4.98607 84.2548 10.3589C90.2436 12.9526 95.2291 16.9359 99.9676 21.3051C103.626 24.6708 107.5 27.666 112.269 29.3643C115.341 30.4605 117.965 30.2597 120.419 27.8821C123.521 24.8715 126.778 22.0462 129.973 19.1282C134.82 14.7127 139.913 10.6522 145.717 7.50262C159.084 0.246274 172.466 0.894705 185.863 7.30191C193.334 10.8683 199.245 16.5036 205.095 22.2006C208.198 25.2112 211.254 28.2836 214.819 30.7538C218.23 33.116 218.57 33.1005 221.179 29.9664C224.976 25.4119 228.634 20.7647 232.477 16.2565C235.765 12.3968 239.469 8.93845 243.775 6.1903C257.25 -2.42469 270.879 -1.56009 284.477 5.77346C291.84 9.74129 297.026 16.0404 301.734 22.7564C302.938 24.4701 304.157 26.1839 305.515 27.7741C308.51 31.3251 312.291 33.363 316.999 33.7645C320.179 34.0424 323.405 34.1504 326.476 35.2466C334.41 38.0874 337.666 47.2119 333.221 54.3601C331.307 57.4325 328.591 59.4396 324.994 60.1806C321.83 60.8136 318.651 60.7828 316.521 60.4431Z" fill="#E5E5E5" fill-opacity="0.15"/>
<path d="M85.2272 51.643C94.0406 53.1406 100.539 57.7723 105.895 64.2413C109.831 68.9965 112.964 74.3539 116.977 79.0628C118.428 80.7611 119.863 82.4439 121.731 83.6945C125.482 86.1802 127.766 86.0875 130.915 82.8608C133.925 79.773 136.703 76.4536 139.558 73.1959C144.05 68.0701 148.758 63.1914 154.916 60.011C166.616 53.9434 177.76 55.1477 188.379 62.6356C193.272 66.0939 197.084 70.6485 200.928 75.1567C203.258 77.874 205.497 80.6685 207.688 83.5092C212.813 90.148 219.496 88.5269 224.512 85.4854C227.306 83.7871 229.297 81.2242 231.057 78.5224C233.496 74.8016 235.78 70.9882 238.327 67.3445C242.186 61.7865 246.862 57.2011 253.469 54.8234C261.016 52.1062 268.302 53.2332 275.556 55.7189C277.779 56.4754 279.909 57.4789 281.884 58.7604C287.487 62.3886 289.525 69.4133 286.669 75.3265C283.798 81.2551 277.069 84.0805 270.771 81.9807C268.903 81.3477 267.082 80.5912 265.215 79.9428C263.393 79.3098 261.85 79.7112 260.599 81.2706C259.195 83.0152 257.991 84.8524 256.864 86.7823C253.87 91.9081 250.536 96.8022 246.43 101.125C236.845 111.253 224.79 115.159 211.238 114.326C203.614 113.847 197.223 109.895 191.698 104.661C188.009 101.171 184.875 97.1882 181.758 93.205C179.319 90.0863 176.741 87.0911 173.716 84.5282C170.521 81.8109 168.854 81.8263 165.505 84.3429C163.02 86.211 161.013 88.5578 158.96 90.8582C155.75 94.4555 152.678 98.1609 149.298 101.588C142.923 108.073 135.36 112.427 125.991 111.963C117.764 111.547 110.448 108.32 104.012 103.148C97.961 98.2844 93.6084 91.9698 89.194 85.717C87.6968 83.5864 86.1378 81.533 84.4091 79.6031C82.773 77.7659 80.9054 77.5652 78.729 78.5379C77.1083 79.2635 75.8118 80.3596 74.7005 81.7028C72.5705 84.2657 70.425 86.8286 68.3104 89.3915C62.2908 96.6787 54.8666 102.036 46.1612 105.68C44.4325 106.405 42.6729 106.946 40.8052 107.054C34.9708 107.409 29.6149 103.981 27.6701 98.7167C25.7252 93.3902 27.5312 87.369 32.1462 83.8025C33.3193 82.8916 34.5849 82.1352 35.9741 81.5794C41.8857 79.2326 46.4853 75.2339 50.2823 70.2162C53.7243 65.6771 57.367 61.3233 62.0747 58.0193C69.1594 53.048 77.0003 51.0718 85.2272 51.643Z" fill="#E5E5E5" fill-opacity="0.15"/>
</svg>
