<svg width="258" height="293" viewBox="0 0 258 293" fill="none" xmlns="http://www.w3.org/2000/svg">
<path d="M0.0514817 161.63C-0.219532 149.96 1.52979 139.191 4.95442 128.681C5.50877 126.989 6.18629 125.346 7.17179 123.852C9.53701 120.221 13.1218 119.011 17.187 120.567C20.2544 121.74 22.9891 123.531 25.4652 125.655C30.2572 129.78 34.5195 134.423 38.7203 139.129C44.4978 145.6 49.8318 152.479 56.0405 158.555C57.4572 159.938 58.9355 161.248 60.6108 162.297C63.4688 164.1 65.4768 163.224 66.2529 159.889C66.6101 158.345 66.7826 156.789 66.8565 155.196C67.6572 138.61 69.1971 122.111 72.1782 105.772C74.0384 95.5581 76.3296 85.4436 80.4688 75.86C82.6738 70.7471 85.2731 65.9059 89.4246 62.0528C90.8905 60.6943 92.5289 59.6445 94.3274 58.7923C97.2839 57.3968 99.8586 58.0143 102.211 60.1385C104.466 62.1639 105.895 64.7574 107.225 67.4126C109.516 72.0068 111.29 76.8357 113.237 81.5904C115.22 86.4316 117.327 91.2233 120.283 95.5828C121.404 97.2254 122.698 98.7074 124.201 100.004C126.295 101.795 128.709 102.758 131.493 102.795C134.979 102.845 137.505 101.585 139.032 98.2381C140.597 94.8172 141.977 91.3344 143.172 87.7777C147.68 74.3903 151.979 60.9412 157.227 47.8256C160.714 39.1065 164.606 30.5727 169.608 22.5946C173.451 16.4567 177.837 10.8128 183.553 6.2433C193.691 -1.85827 205.899 -1.61127 215.594 4.31671C222.024 8.25635 224.87 14.5548 225.498 21.9648C226.213 30.3627 224.771 38.489 222.554 46.5289C219.29 58.3725 214.547 69.6603 209.521 80.8247C205.837 89.0127 202.105 97.1883 198.458 105.401C196.918 108.847 195.834 112.441 195.908 116.269C195.995 120.591 197.879 122.765 202.043 123.691C205.431 124.445 208.72 123.728 212.009 123.173C217.836 122.197 223.613 120.962 229.502 120.283C234.023 119.764 238.556 119.851 243.077 120.036C244.752 120.11 246.379 120.579 247.968 121.135C253.277 122.987 255.778 127.088 254.891 132.67C254.275 136.511 252.92 140.104 250.875 143.427C247.179 149.466 242.424 154.566 237.176 159.247C228.787 166.743 219.622 173.289 211.11 180.637C207.365 183.86 203.817 187.281 200.934 191.332C199.382 193.518 198.2 195.864 197.621 198.544C197.054 201.15 197.978 203.052 200.121 204.324C202.893 205.967 205.813 206.856 209.151 206.201C216.592 204.744 224.045 203.336 231.534 202.114C236.967 201.224 242.449 200.52 247.992 200.632C249.076 200.656 250.173 200.706 251.22 200.916C256.615 202.015 258.944 205.769 257.65 211.203C256.96 214.13 255.655 216.761 253.881 219.181C251.774 222.059 249.397 224.702 246.945 227.258C229.108 245.882 209.336 262.11 186.916 274.929C174.806 281.857 162.106 287.476 148.444 290.626C135.275 293.664 122.119 294.059 109.011 290.206C106.732 289.539 104.552 288.65 102.347 287.785C100.672 287.118 99.9448 285.92 99.9201 284.13C99.8832 281.425 100.462 278.832 101.177 276.263C103.961 266.247 108.001 256.688 112.03 247.142C120.443 227.221 129.645 207.659 138.724 188.035C146.682 170.831 154.973 153.788 162.032 136.177C162.993 133.794 163.867 131.385 164.483 128.878C164.693 128.014 164.877 127.162 164.643 126.248C164.064 123.963 162.327 123 160.147 123.914C158.669 124.531 157.486 125.606 156.402 126.754C153.211 130.138 150.464 133.88 147.853 137.709C140.856 148.008 134.758 158.852 128.783 169.757C120.049 185.688 111.734 201.83 103.468 218.008C97.0499 230.58 90.41 243.041 82.526 254.786C76.9086 263.159 71.1311 271.385 63.7398 278.338C61.855 280.104 59.8347 281.66 57.4941 282.759C53.6753 284.537 50.9528 283.994 48.3289 280.709C46.3579 278.239 44.5471 275.658 42.7362 273.064C33.4601 259.763 25.0218 245.968 18.0493 231.309C10.3008 214.995 4.30148 198.112 1.51742 180.192C0.544237 173.857 -0.207213 167.484 0.0514817 161.63Z" fill="#E5E5E5" fill-opacity="0.15"/>
</svg>
