<svg width="203" height="196" viewBox="0 0 203 196" fill="none" xmlns="http://www.w3.org/2000/svg">
<path d="M199.407 82.804C203.578 95.4565 203.896 108.355 201.5 121.369C198.816 135.916 192.076 148.308 181.583 158.69C171.437 168.725 160.367 177.546 147.696 184.183C121.01 198.152 93.6462 199.945 65.6184 188.449C53.0188 183.272 41.2852 176.621 31.3124 167.222C20.5169 157.056 12.7667 144.794 7.42667 130.985C1.69699 116.178 -1.07405 100.908 0.383626 85.0019C2.79385 58.5835 14.7006 37.4719 35.974 21.7538C49.4828 11.7764 64.6225 5.18256 81.0755 1.9869C111.499 -3.91279 138.589 3.36063 162.287 23.3444C177.888 36.503 189.232 52.7127 196.506 71.7565C197.848 75.2992 198.455 79.1167 199.407 82.804Z" fill="#E5E5E5" fill-opacity="0.15"/>
</svg>
