<svg width="181" height="141" viewBox="0 0 181 141" fill="none" xmlns="http://www.w3.org/2000/svg">
<path d="M181 82.6287C180.728 91.4301 179.325 102.451 175.303 112.991C172.64 119.963 168.76 126.051 163.55 131.254C155.319 139.47 145.527 142.304 134.476 140.46C117.956 137.701 104.93 129.095 95.4243 114.611C90.4427 107.024 86.1195 98.972 80.4794 91.865C72.6633 81.999 62.8575 76.5112 50.5179 75.4317C42.7019 74.7419 34.8142 75.1618 27.0411 73.7674C24.8795 73.3775 22.6894 73.1076 20.5564 72.5678C10.2925 69.9739 3.62165 63.3766 1.2883 52.5511C-2.44794 35.1282 2.00408 19.8645 13.8427 7.28462C22.5892 -1.99657 32.3091 -2.20649 42.2437 5.50035C48.2847 10.1784 52.7224 16.3259 56.931 22.6983C58.2623 24.7225 59.522 26.8366 61.0251 28.7258C68.6694 38.3519 78.3035 41.3206 89.7413 37.8571C96.5839 35.7879 102.754 32.1444 108.795 28.291C115.093 24.2726 121.349 20.1643 127.648 16.131C131.155 13.8969 134.92 12.2326 138.828 10.9881C144.582 9.15886 149.95 9.87856 154.932 13.657C162.906 19.7145 168.517 27.7213 172.468 37.0474C178.18 50.5569 181.014 65.2658 181 82.6287Z" fill="#E5E5E5" fill-opacity="0.15"/>
</svg>
