<svg width="589" height="598" viewBox="0 0 589 598" fill="none" xmlns="http://www.w3.org/2000/svg">
<g clip-path="url(#clip0)">
<path fill-rule="evenodd" clip-rule="evenodd" d="M587.412 270.831C611.109 54.3506 364.583 -19.0373 233.897 4.07814C89.8365 29.5553 16.5491 167.487 1.80971 298.771C-24.3361 531.555 237.984 658.517 445.219 569.35C571.279 515.108 587.412 270.831 587.412 270.831Z" fill="#F9DED7"/>
<path fill-rule="evenodd" clip-rule="evenodd" d="M12.9509 75.3907C27.877 71.4711 45.8128 97.7811 50.0794 94.766C52.5504 93.0216 65.415 65.0462 70.3066 58.5423C77.6403 48.7793 83.3436 47.4943 89.8585 50.1576C99.0383 53.9049 98.5642 75.7066 96.8906 85.8285C95.3103 95.369 81.6484 185.354 70.8597 185.124C55.2368 184.794 7.78638 113.057 4.66898 103.904C1.40075 94.285 -0.495539 78.9226 12.9509 75.3907Z" fill="#FF8189"/>
<path fill-rule="evenodd" clip-rule="evenodd" d="M162.186 576.08C147.256 568.043 142.646 578.23 147.282 589.121C149.254 593.755 156.775 599.665 162.548 592.116C166.35 587.146 168.209 579.331 162.186 576.08Z" fill="#EE907B"/>
<path fill-rule="evenodd" clip-rule="evenodd" d="M128.066 520.502C115.949 533.413 123.987 540.715 135.556 538.902C140.477 538.129 148.311 532.109 143.095 524.331C139.651 519.205 132.961 515.292 128.066 520.502Z" fill="#EE907B"/>
<path fill-rule="evenodd" clip-rule="evenodd" d="M114.673 561.18C97.5471 561.727 98.1754 572.937 107.416 580.073C111.35 583.112 120.848 584.457 122.492 574.964C123.577 568.704 121.588 560.958 114.673 561.18Z" fill="#EE907B"/>
</g>
<defs>
<clipPath id="clip0">
<rect width="589" height="598" fill="white"/>
</clipPath>
</defs>
</svg>
