<svg width="33" height="35" viewBox="0 0 33 35" fill="none" xmlns="http://www.w3.org/2000/svg">
<path d="M31.2063 21.8693C28.9159 22.7329 23.6264 24.9816 23.3462 22.847C23.0991 21.0382 27.6635 15.6771 28.6028 14.3409C29.5915 12.9233 32.7223 8.89839 29.6244 10.1531C27.7953 10.8864 20.545 19.5717 18.8807 18.4799C17.7437 17.7303 25.3566 7.44813 26.6089 4.64538C27.6141 2.38036 25.1588 2.47813 24.1537 3.60249C22.5223 5.46013 17.6119 12.4181 16.3266 13.6891C12.6684 17.3066 13.7066 11.7174 13.9208 9.63166C14.2174 6.79632 14.5469 3.97728 14.8271 1.14194C14.9259 0.0501709 13.4594 -0.617926 12.7343 0.832334C11.2513 3.83062 8.20288 16.1171 6.29142 17.2089C5.41808 17.6325 4.82487 17.1437 4.24814 16.0845C3.70436 14.7483 3.32535 13.2329 3.07818 11.8152C2.78158 10.1205 1.95768 10.9027 1.62812 11.8315C-0.200953 16.9644 -0.365731 21.853 0.524086 27.0348C0.853648 28.8109 2.17189 37.1214 14.3986 33.4713C18.8312 32.1514 27.334 28.094 32.3433 23.5151C32.8871 22.9936 33.8758 20.859 31.2063 21.8693Z" fill="#85AF9A"/>
</svg>
