<svg width="188" height="201" viewBox="0 0 188 201" fill="none" xmlns="http://www.w3.org/2000/svg">
<path d="M177.701 110.783C165.564 117.558 137.62 134.714 134.251 122.772C131.402 112.673 152.669 78.382 156.839 69.9385C161.253 61.0117 175.513 35.5702 159.125 45.2413C149.479 50.9344 115.769 106.39 105.517 101.501C98.5279 98.1689 132.92 33.2348 137.649 16.2111C141.466 2.48513 127.671 5.00019 123.018 12.246C115.368 24.1583 93.4405 67.9239 87.2486 76.2005C69.5898 99.7985 70.8733 67.1198 70.4128 54.9978C69.7902 38.59 69.3168 22.1779 68.545 5.77867C68.2465 -0.521831 59.3765 -3.1866 56.5023 5.71023C50.5791 24.0428 43.5556 96.5905 33.7219 104.409C29.1292 107.575 25.3893 105.226 21.3254 99.6189C17.142 92.4629 13.7859 84.0794 11.2315 76.2176C8.17397 66.8246 4.20808 71.8933 3.11213 77.4752C-2.93051 108.229 0.156909 136.314 9.3552 165.139C12.6303 175.011 26.8946 221.394 92.6601 190.593C116.511 179.421 161.069 149.403 185.44 119.183C188.131 115.847 191.905 102.853 177.701 110.783ZM79.675 107.211C82.7454 107.211 83.513 110.547 83.513 111.488C83.513 114.91 80.6132 116.108 79.2486 116.108C77.3723 116.108 74.8989 114.654 74.8989 111.745C74.8989 109.179 76.7752 107.211 79.675 107.211ZM65.1761 107.211C68.2465 107.211 69.2699 110.547 69.2699 111.488C69.2699 114.91 66.3701 116.108 65.0055 116.108C63.1292 116.108 60.6558 114.654 60.6558 111.745C60.6558 109.179 62.7028 107.211 65.1761 107.211ZM100.698 160.169C98.7369 160.169 95.9224 159.998 93.9607 159.998C91.9991 159.998 89.4405 160.169 87.4789 160.169C85.9437 160.169 85.0055 159.313 85.0055 158.629C85.0055 158.287 85.432 157.431 87.0524 156.918C89.0993 156.234 89.6964 155.121 89.6964 153.068C89.6964 148.962 89.6964 142.375 89.6111 138.868C89.5258 135.531 89.2699 134.077 88.2465 132.537C87.223 131.083 85.2614 129.8 82.191 129.8C78.8648 129.8 75.7944 131.254 75.1974 131.853C74.8563 132.195 74.3445 133.307 74.3445 134.334C74.3445 146.567 74.5151 150.93 74.6857 152.897C74.771 154.865 75.7091 155.977 77.4149 156.576C79.1207 157.175 79.7177 157.773 79.7177 158.714C79.7177 159.57 78.6089 160.169 77.5855 160.169C75.368 160.169 72.4682 159.998 70.2507 159.998C68.3744 159.998 65.9863 160.169 64.11 160.169C62.6601 160.169 61.4661 159.313 61.4661 158.543C61.4661 157.859 62.319 157.346 63.6836 156.832C65.901 156.062 66.7539 155.549 66.8392 152.127L67.0951 135.959C67.1804 134.077 66.0716 132.452 65.901 132.195C64.707 130.655 62.6601 129.543 59.4192 129.543C56.4341 129.543 54.2166 130.484 52.5961 131.682C52.4256 131.853 51.658 133.564 51.658 133.906C51.658 148.962 51.658 150.759 51.8286 152.983C51.9991 155.378 53.0226 155.977 54.5578 156.747C56.1782 157.602 56.5194 158.116 56.5194 158.714C56.5194 159.57 55.6665 160.254 54.3872 160.254C52.3403 160.254 49.2699 159.998 46.7113 159.998C44.7497 159.998 42.6175 160.425 40.6558 160.425C39.0354 160.425 38.0972 159.655 38.0972 158.885C38.0972 158.116 38.8648 157.602 40.2294 157.089C43.4703 155.72 43.8115 155.036 43.8968 152.298C44.0674 149.133 44.2379 142.375 44.2379 134.505C44.2379 133.649 43.8968 132.708 42.4469 131.596C40.9117 130.313 40.4853 129.971 40.4853 129.629C40.4853 128.944 41.2529 127.918 41.9352 127.575C43.8115 126.806 46.2848 125.865 49.0993 124.068C49.6964 123.64 49.8669 123.555 50.1228 123.555C50.7198 123.555 51.5727 124.41 51.5727 124.581C51.5727 126.036 51.4874 126.549 51.4874 128.003C51.4874 128.431 51.9138 128.773 52.4256 128.516C54.6431 126.891 59.3339 124.154 64.0247 124.154C69.0567 124.154 71.7006 126.806 72.9799 128.773C73.0652 128.944 73.7475 129.201 74.0887 129.03C75.6239 128.003 78.0972 126.292 80.3147 125.351C82.191 124.581 83.5556 124.154 86.1996 124.154C93.7902 124.154 96.69 131.083 97.0311 137.157C97.287 142.632 97.5428 151.785 97.5428 153.924C97.5428 155.378 99.2486 156.405 100.698 156.918C101.807 157.346 102.745 157.859 102.745 158.8C102.745 159.826 101.466 160.169 100.698 160.169Z" fill="white"/>
</svg>
