<svg id="Layer_1" data-name="Layer 1" xmlns="http://www.w3.org/2000/svg" viewBox="0 0 129.35 32"><defs><style>.cls-1{fill:#ee907b;}.cls-2{fill:#cf8a00;}.cls-3{fill:#a1a468;}.cls-4{fill:#85af9a;}.cls-5{fill:#4e738a;}.cls-6{fill:#ff8189;}.cls-7{fill:#f3ce9e;}.cls-8{fill:#847770;}</style></defs><title>logo</title><path class="cls-1" d="M1.68,9A16,16,0,0,0,4.59,7.55c.25-.17.32-.21.42-.21a.91.91,0,0,1,.59.42c0,.59,0,.8,0,1.38A.25.25,0,0,0,6,9.35a8.76,8.76,0,0,1,4.71-1.76A4.12,4.12,0,0,1,14.3,9.46a.47.47,0,0,0,.45.1,16.26,16.26,0,0,1,2.53-1.49,5.44,5.44,0,0,1,2.39-.48c3.08,0,4.26,2.8,4.4,5.26.1,2.22.21,5.93.21,6.8,0,.58.69,1,1.28,1.21s.83.38.83.76-.52.55-.83.55c-.8,0-1.94-.06-2.74-.06s-1.83.06-2.63.06c-.63,0-1-.34-1-.62s.18-.48.83-.69a1.38,1.38,0,0,0,1.08-1.56c0-1.66,0-4.33,0-5.75A4.28,4.28,0,0,0,20.5,11,2.88,2.88,0,0,0,18,9.87a5.16,5.16,0,0,0-2.84.83,1.7,1.7,0,0,0-.35,1c0,4.95.07,6.72.14,7.52a1.49,1.49,0,0,0,1.11,1.49c.69.24.93.48.93.87s-.45.58-.86.58c-.9,0-2.08-.06-3-.06s-1.73.06-2.5.06c-.59,0-1.07-.34-1.07-.65s.35-.49.9-.7c.9-.31,1.25-.52,1.28-1.9l.11-6.55a2.77,2.77,0,0,0-.49-1.53A3.14,3.14,0,0,0,8.79,9.77,4.53,4.53,0,0,0,6,10.64a3.69,3.69,0,0,0-.38.9c0,6.1,0,6.82.07,7.72a1.58,1.58,0,0,0,1.11,1.53c.66.35.8.55.8.8s-.35.62-.87.62c-.83,0-2.08-.1-3.12-.1-.79,0-1.66.17-2.46.17s-1-.31-1-.62.32-.52.87-.73c1.32-.56,1.46-.83,1.49-1.94.07-1.29.14-4,.14-7.21a1.46,1.46,0,0,0-.73-1.18c-.62-.52-.8-.66-.8-.8A1.22,1.22,0,0,1,1.68,9Z"/><path class="cls-2" d="M41.91,9.73a4.52,4.52,0,0,1,.63,2.46c0,.39-.63,1.08-1,1.08l-7.38.1a1.24,1.24,0,0,0-.56.35,2.57,2.57,0,0,0-.14,1A5.14,5.14,0,0,0,38.69,20a7.07,7.07,0,0,0,3.47-1.29c.17-.1.45.11.45.45a1.84,1.84,0,0,1-.49,1.18,7,7,0,0,1-5,2.15c-4.37,0-6.86-3-6.86-7.21a7.64,7.64,0,0,1,3.39-6.55,7.8,7.8,0,0,1,4.06-1.17A4.9,4.9,0,0,1,41.91,9.73Zm-6.57-7a1.82,1.82,0,0,1-1.73,1.87A1.77,1.77,0,0,1,31.84,2.8,1.82,1.82,0,0,1,33.67,1C34.92,1,35.34,2.32,35.34,2.7Zm-1.47,9a.49.49,0,0,0,.18.39c.38,0,1.45.07,2.49.07,1.25,0,2.78-.07,2.78-1.25,0-1-.77-2-2.57-2A3.69,3.69,0,0,0,33.87,11.67Zm7.26-9a1.82,1.82,0,0,1-1.74,1.87A1.76,1.76,0,0,1,37.63,2.8,1.81,1.81,0,0,1,39.57,1C40.81,1,41.13,2.32,41.13,2.7Z"/><path class="cls-3" d="M47.87,8.87c.63-.28,1.84-.8,2.57-1.18a2.58,2.58,0,0,1,1-.35c.1,0,.38.38.38.52l.1,1.7c0,.1.25.24.35.1A5.44,5.44,0,0,1,56,7.59c1,0,2,.72,2,1.14A3.94,3.94,0,0,1,56.57,11a1.32,1.32,0,0,1-.62.31,1.44,1.44,0,0,1-.8-.35,2.62,2.62,0,0,0-1.32-.48,1.68,1.68,0,0,0-1.45.69,1.58,1.58,0,0,0-.31.76c0,.35,0,5.37,0,6.59.14,1.59.38,1.94,1.91,2.35.76.21,1.24.49,1.24.8s-.48.62-.9.62c-1.07,0-2.94-.13-4-.13-1.21,0-1.83.1-2.8.1-.63,0-1-.35-1-.59s.34-.59.79-.76c1.32-.49,1.42-.94,1.46-1.94.07-1.6.1-5.55.1-7.38,0-.21-.07-.45-.86-1-.39-.32-.77-.63-.77-.84A1,1,0,0,1,47.87,8.87Z"/><path class="cls-4" d="M71.2,9A5.5,5.5,0,0,1,72.37,12c0,1.32-.13,2.67-.13,6.55,0,1.15.58,1.67,1.21,1.67a3.88,3.88,0,0,0,1.18-.28c.1-.07.27.28.27.52a3.57,3.57,0,0,1-.31,1A3.26,3.26,0,0,1,72,22.63a2.49,2.49,0,0,1-2.57-2.12s-.27-.21-.34-.17A27.42,27.42,0,0,1,66.48,22a4,4,0,0,1-1.87.52,3.9,3.9,0,0,1-3.36-4.09,2.75,2.75,0,0,1,.52-1.7,3,3,0,0,1,1.42-1,36.6,36.6,0,0,0,5.86-1.66.81.81,0,0,0,.38-.56V12.19a2.07,2.07,0,0,0-.11-.86,3.12,3.12,0,0,0-2.91-1.91,2.27,2.27,0,0,0-1.49.49,4.12,4.12,0,0,0-.34,1.76,1.11,1.11,0,0,1-.35.73,1.92,1.92,0,0,1-1,.31,6.12,6.12,0,0,1-1.63-.2,1,1,0,0,1-.42-.63c0-.62,1.08-1.7,2.57-2.7A8.37,8.37,0,0,1,67.9,7.59,4.38,4.38,0,0,1,71.2,9ZM69,19a2.59,2.59,0,0,0,.27-1l.07-2.22c0-.13-.17-.2-.27-.2a33.51,33.51,0,0,0-3.54.86c-.93.35-1.25.73-1.25,1.6a2.25,2.25,0,0,0,2.26,2.08A3.91,3.91,0,0,0,69,19Z"/><path class="cls-5" d="M89.56,8c1.39,0,3.15-.21,3.85-.21s1.07.32,1.07.59-.48.56-.9.7a6.52,6.52,0,0,0-3.19,1.52c-.93.73-1.9,1.56-3,2.5-.14.13-.07.31,0,.45,1.45,2,3.57,4.54,4.16,5.23a7.71,7.71,0,0,0,2.46,2c.93.39,1.35.59,1.35.91s-.49.55-1.21.55c-1,0-2.29-.1-4-.1l-1.53,0c-.59,0-.8-.38-.8-.55s.18-.49.87-.73c.38-.18.35-.49.14-.8-.42-.69-2.39-3-3.09-3.88s-.86-1.11-1.21-1.11a1.37,1.37,0,0,0-.52.21.6.6,0,0,0-.21.52c0,1.25,0,2.29,0,3.19,0,1.59.63,1.66,1.32,1.94.45.14.83.27.83.55a1,1,0,0,1-1,.73c-.63,0-1.77-.1-2.64-.1s-2.15.1-2.8.1-1.11-.21-1.11-.55.24-.52,1-.8c1.08-.35,1.15-.76,1.22-1.67.06-.58.2-8.69.2-12.44a10.05,10.05,0,0,0,0-2.11c0-.73-.17-1-1.08-1.56-.31-.17-.62-.41-.62-.59a1,1,0,0,1,.69-.76c.52-.17,1.91-.48,2.81-.73a6.93,6.93,0,0,1,1-.31c.17,0,.35.45.35.69,0,1-.18,6.62-.18,8.6v2.63c0,1.18.11,1.49.38,1.49a3.8,3.8,0,0,0,1.18-.69,29.15,29.15,0,0,0,3.16-3.09c.48-.59.38-.83-.32-1-.55-.14-.93-.31-.93-.59s.48-.69.93-.69Z"/><path class="cls-6" d="M99.12,8.76a21.19,21.19,0,0,1,4-1.21c.14,0,.38.49.38.66v6.27c0,4.54.07,5.1.1,5.41s.21.69,1.39,1c.49.18.87.49.87.87s-.52.45-1,.45c-.73,0-2.22-.1-3-.1-1.77,0-2.57.1-3,.1-.66,0-1.08-.21-1.08-.55s.38-.59.87-.7c1.49-.41,1.56-.66,1.7-2.08.07-.72.17-3.15.17-5.13,0-.69,0-2.32-.07-2.53s-.31-.65-1.28-1.28a1.07,1.07,0,0,1-.42-.73C98.67,9,99,8.83,99.12,8.76Zm3.82-7.59a2.64,2.64,0,0,1,.65,1.49,2,2,0,0,1-2,2.08,2,2,0,0,1-1.56-.83,1.75,1.75,0,0,1-.38-1.11A2,2,0,0,1,101.83.72,1.52,1.52,0,0,1,102.94,1.17Z"/><path class="cls-7" d="M128.27,13.43c-1.39.52-4.6,1.91-4.77.6-.15-1.11,2.62-4.4,3.19-5.22s2.49-3.34.61-2.57c-1.1.45-5.51,5.78-6.52,5.11-.68-.46,3.94-6.77,4.7-8.5.61-1.38-.89-1.33-1.49-.64-1,1.14-4,5.42-4.75,6.2-2.23,2.21-1.59-1.21-1.46-2.49.19-1.74.38-3.48.55-5.22.07-.67-.83-1.08-1.27-.19-.9,1.84-2.75,9.38-3.91,10.05-.53.26-.89,0-1.23-.69a12.54,12.54,0,0,1-.71-2.62c-.18-1-.68-.56-.88,0a18,18,0,0,0-.67,9.33c.19,1.09,1,6.19,8.41,3.95A33.23,33.23,0,0,0,129,14.43C129.29,14.12,129.89,12.81,128.27,13.43Z"/><path class="cls-8" d="M0,31.27l.39-.88a3.41,3.41,0,0,0,2,.67c1,0,1.35-.34,1.35-.79,0-1.32-3.62-.46-3.62-2.72,0-1,.78-1.82,2.46-1.82a3.84,3.84,0,0,1,2,.54l-.36.88a3.42,3.42,0,0,0-1.68-.48c-.94,0-1.33.36-1.33.83,0,1.29,3.62.45,3.62,2.69,0,1-.79,1.81-2.47,1.81A4,4,0,0,1,0,31.27Z"/><path class="cls-8" d="M6.43,28.86A3.1,3.1,0,0,1,9.7,25.73a3.07,3.07,0,0,1,2.41,1l-.73.69a2.16,2.16,0,0,0-1.63-.72,2.15,2.15,0,1,0,0,4.29,2.14,2.14,0,0,0,1.63-.73l.73.7a3.11,3.11,0,0,1-2.42,1A3.11,3.11,0,0,1,6.43,28.86Z"/><path class="cls-8" d="M19.49,25.81v6.1H18.36V29.3H15.2v2.61H14.07v-6.1H15.2v2.52h3.16V25.81Z"/><path class="cls-8" d="M21.56,28.86a3.12,3.12,0,0,1,3.29-3.13,3.14,3.14,0,1,1,0,6.27A3.12,3.12,0,0,1,21.56,28.86Zm5.43,0A2.15,2.15,0,1,0,24.85,31,2.08,2.08,0,0,0,27,28.86Z"/><path class="cls-8" d="M29.77,28.86a3.12,3.12,0,0,1,3.28-3.13,3.14,3.14,0,1,1,0,6.27A3.12,3.12,0,0,1,29.77,28.86Zm5.42,0A2.14,2.14,0,1,0,33.05,31,2.08,2.08,0,0,0,35.19,28.86Z"/><path class="cls-8" d="M38.41,25.81h1.13V31h3.19v1H38.41Z"/></svg>