<svg width="560" height="137" viewBox="0 0 560 137" fill="none" xmlns="http://www.w3.org/2000/svg">
<g clip-path="url(#clip0)">
<path d="M7.27314 38.4028C10.5634 37.0756 14.9361 35.4487 19.8715 32.3234C20.9106 31.5956 21.2136 31.4243 21.6898 31.4243C22.7289 31.4243 24.2441 32.9228 24.2441 33.2224C24.2441 35.7484 24.1143 36.6474 24.1143 39.1734C24.1143 39.9012 24.8503 40.5006 25.7594 40.0724C29.6558 37.2468 37.9249 32.4946 46.1506 32.4946C54.9825 32.4946 59.6581 37.0756 61.9094 40.5006C62.0393 40.8003 63.2515 41.2284 63.8576 40.9287C66.5418 39.1306 70.9144 36.1765 74.8108 34.5496C78.1011 33.2224 80.5256 32.4518 85.158 32.4518C98.4923 32.4518 103.601 44.4821 104.207 55.014C104.64 64.5184 105.116 80.4018 105.116 84.0837C105.116 86.6096 108.103 88.3649 110.658 89.264C112.606 89.9918 114.251 90.8909 114.251 92.5178C114.251 94.3159 112 94.8724 110.658 94.8724C107.194 94.8724 102.259 94.5728 98.7954 94.5728C95.3319 94.5728 90.8294 94.8724 87.4092 94.8724C84.725 94.8724 83.0799 93.374 83.0799 92.2181C83.0799 91.6187 83.8159 90.1203 86.6732 89.264C90.2666 88.0653 91.3056 86.1387 91.3056 82.5853C91.3056 75.4784 91.3056 64.0474 91.1757 57.9681C91.0459 52.1884 90.5696 49.6624 88.7946 47.0081C86.9763 44.4821 83.5561 42.2559 78.1444 42.2559C72.2998 42.2559 66.8881 44.7818 65.8491 45.8093C65.243 46.4087 64.3338 48.3353 64.3338 50.0906C64.3338 71.3256 64.6369 78.8606 64.9399 82.2856C65.0698 85.7106 66.7583 87.6371 69.7455 88.6646C72.7327 89.6921 73.8151 90.7624 73.8151 92.3893C73.8151 93.8878 71.8669 94.9153 70.0486 94.9153C66.1522 94.9153 61.0435 94.6156 57.1471 94.6156C53.8568 94.6156 49.6574 94.9153 46.3671 94.9153C43.8128 94.9153 41.7347 93.4168 41.7347 92.0896C41.7347 90.8909 43.2499 89.9918 45.6311 89.1356C49.5275 87.8084 51.0428 86.9093 51.1726 80.9584L51.6056 52.9162C51.7355 49.6624 49.7872 46.8368 49.4842 46.4087C47.3628 43.7543 43.7695 41.8278 38.098 41.8278C32.8595 41.8278 28.9631 43.4546 26.1058 45.5524C25.8027 45.8521 24.4606 48.8062 24.4606 49.4056C24.4606 75.5212 24.4606 78.6465 24.7637 82.4996C25.0667 86.6524 26.885 87.6799 29.5692 89.0071C32.4266 90.5056 33.0327 91.3618 33.0327 92.4321C33.0327 93.9306 31.5174 95.0865 29.2662 95.0865C25.6728 95.0865 20.2612 94.6584 15.7586 94.6584C12.2952 94.6584 8.57194 95.3862 5.10847 95.3862C2.25111 95.3862 0.605957 94.059 0.605957 92.7318C0.605957 91.4046 1.94805 90.5056 4.37248 89.6065C10.0872 87.2518 10.6933 86.0531 10.8232 81.3009C11.1263 75.8209 11.4293 64.0903 11.4293 50.4331C11.4293 48.9346 10.8232 47.3078 8.26889 45.3812C5.5847 43.1549 4.80542 42.5556 4.80542 41.9562C4.71883 40.8003 6.10422 39.0021 7.27314 38.4028Z" fill="#EE907B"/>
<path d="M181.442 41.6565C183.391 44.6106 184.127 48.4637 184.127 52.1884C184.127 53.8153 181.442 56.7694 179.927 56.7694C178.888 56.7694 150.661 57.1975 147.977 57.1975C147.544 57.1975 146.028 58.0965 145.595 58.6959C144.989 59.7234 144.989 62.1209 144.989 62.9772C144.989 75.8637 154.6 85.6678 167.502 85.6678C173.217 85.6678 179.667 82.1144 182.525 80.1878C183.261 79.7597 184.473 80.6159 184.473 82.1144C184.473 84.0409 183.564 85.6678 182.352 87.1662C176.637 93.1172 168.541 96.3709 160.618 96.3709C141.699 96.3709 130.919 83.6128 130.919 65.5031C130.919 53.1731 136.764 43.1122 145.639 37.4609C150.574 34.3356 156.895 32.409 163.173 32.409C170.662 32.4947 177.719 35.7484 181.442 41.6565ZM152.999 11.5594C152.999 17.5103 147.89 19.5653 145.509 19.5653C142.219 19.5653 137.846 17.0394 137.846 11.9875C137.846 7.53499 141.439 4.10999 145.812 4.10999C151.18 4.1528 152.999 9.93249 152.999 11.5594ZM146.634 49.9622C146.505 50.5615 147.067 51.4606 147.37 51.5891C149.016 51.7175 153.691 51.8887 158.15 51.8887C163.562 51.8887 170.143 51.589 170.143 46.5372C170.143 42.3844 166.852 38.0603 159.06 38.0603C155.077 38.1031 148.323 43.0265 146.634 49.9622ZM178.065 11.5594C178.065 17.5103 172.957 19.5653 170.576 19.5653C167.285 19.5653 162.913 17.0394 162.913 11.9875C162.913 7.53499 166.203 4.10999 171.312 4.10999C176.68 4.1528 178.065 9.93249 178.065 11.5594Z" fill="#CF8A00"/>
<path d="M207.245 37.9746C209.93 36.7759 215.211 34.5496 218.329 32.9228C220.277 32.0237 221.489 31.4243 222.831 31.4243C223.264 31.4243 224.476 33.0512 224.476 33.6506L224.909 40.9287C224.909 41.3568 225.948 41.9562 226.424 41.3568C230.754 36.6046 236.469 32.4518 242.313 32.4518C246.816 32.4518 251.015 35.5771 251.015 37.3324C251.015 40.5862 247.119 44.9102 244.867 46.8368C243.958 47.5646 242.746 48.164 242.183 48.164C241.144 48.164 240.235 47.7359 238.72 46.6656C237.508 45.7665 234.953 44.5678 233.005 44.5678C230.624 44.5678 228.373 45.2956 226.684 47.5218C226.078 48.2496 225.342 49.8765 225.342 50.7756C225.342 52.274 225.212 73.7659 225.472 78.9462C226.078 85.7534 227.117 87.2518 233.741 89.0499C237.031 89.949 239.153 91.1477 239.153 92.4749C239.153 93.9734 237.031 95.1293 235.256 95.1293C230.624 95.1293 222.485 94.5299 218.155 94.5299C212.917 94.5299 210.189 94.9581 205.99 94.9581C203.306 94.9581 201.791 93.4596 201.791 92.4321C201.791 90.8052 203.306 89.9062 205.254 89.1784C210.969 87.0806 211.402 85.154 211.575 80.8727C211.878 74.0656 212.008 57.1546 212.008 49.2771C212.008 48.3781 211.705 47.3506 208.241 44.8246C206.596 43.4974 204.951 42.1703 204.951 41.2712C204.994 39.9012 206.077 38.574 207.245 37.9746Z" fill="#A1A468"/>
<path d="M308.249 38.574C311.106 41.2284 313.358 48.3781 313.358 51.2037C313.358 56.8549 312.752 62.6346 312.752 79.2459C312.752 84.1265 315.306 86.3527 317.99 86.3527C319.202 86.3527 321.757 85.7534 323.099 85.154C323.532 84.8543 324.311 86.3527 324.311 87.3802C324.311 88.2793 323.272 91.1049 322.969 91.5331C320.414 94.6584 316.648 96.8846 311.583 96.8846C307.513 96.8846 302.751 95.5574 300.499 87.8512C300.499 87.7228 299.287 86.9521 298.984 87.1234C295.997 89.3496 291.321 92.1752 287.901 94.1018C285.217 95.6002 282.36 96.3281 279.805 96.3281C275.173 96.3281 265.259 91.1477 265.259 78.8177C265.259 75.2643 266.471 72.8668 267.51 71.5396C269.631 68.8852 272.922 67.5152 273.658 67.3868C288.074 63.9618 295.391 62.0352 299.028 60.2799C299.763 59.9802 300.673 58.6531 300.673 57.9252V52.274C300.673 50.6471 300.673 49.7481 300.24 48.5493C298.118 42.8981 292.144 40.3721 287.641 40.3721C284.654 40.3721 281.624 41.6993 281.191 42.4699C280.584 43.1977 279.978 45.5952 279.675 50.0477C279.545 51.5462 278.766 52.7021 278.16 53.1731C277.424 53.9009 274.87 54.5002 273.961 54.5002C272.315 54.5002 268.246 54.2006 266.904 53.6012C266.168 53.3015 265.085 51.6746 265.085 50.9468C265.085 48.2924 269.718 43.6687 276.169 39.3874C281.883 35.5343 288.94 32.5802 294.005 32.5802C299.547 32.4946 303.746 34.2499 308.249 38.574ZM298.638 81.3009C299.071 80.2734 299.85 78.7749 299.85 77.0196L300.153 67.5153C300.153 66.9159 299.417 66.6162 298.941 66.6162C294.741 67.344 286.646 69.2706 283.658 70.3409C279.589 71.8393 278.247 73.4662 278.247 77.1481C278.247 81.729 282.749 86.0531 287.988 86.0531C291.105 86.0531 295.607 84.2549 298.638 81.3009Z" fill="#85AF9A"/>
<path d="M387.735 34.25C393.753 34.25 401.373 33.351 404.403 33.351C407.261 33.351 409.036 34.6782 409.036 35.8769C409.036 37.2041 406.914 38.2316 405.139 38.831C399.121 40.4579 396.437 41.0572 391.329 45.3385C387.259 48.4638 383.059 52.0172 378.297 56.0416C377.691 56.641 377.994 57.3688 378.297 57.9682C384.618 66.445 393.753 77.405 396.307 80.3591C399.295 83.6129 403.667 87.6372 406.957 88.836C411.027 90.4629 412.802 91.3619 412.802 92.6891C412.802 94.316 410.681 95.0438 407.564 95.0438C403.061 95.0438 397.649 94.6157 390.16 94.6157C388.038 94.6157 385.224 94.7441 383.579 94.7441C381.025 94.7441 380.116 93.1172 380.116 92.3894C380.116 91.1907 380.852 90.2916 383.882 89.2641C385.527 88.5363 385.397 87.1663 384.488 85.8391C382.67 82.885 374.141 73.081 371.154 69.2279C368.47 65.8029 367.387 64.4757 365.915 64.4757C365.482 64.4757 364.4 64.9038 363.664 65.3747C362.928 65.9741 362.755 66.7019 362.755 67.601C362.755 72.9525 362.625 77.405 362.755 81.2582C362.885 88.0653 365.439 88.365 368.47 89.5638C370.418 90.1632 372.063 90.7625 372.063 91.9185C372.063 92.946 370.418 95.0438 367.734 95.0438C365.049 95.0438 360.071 94.6157 356.347 94.6157C352.451 94.6157 347.039 95.0438 344.182 95.0438C341.931 95.0438 339.376 94.1447 339.376 92.6891C339.376 91.6616 340.416 90.4629 343.706 89.2641C348.338 87.7657 348.641 86.0104 348.944 82.1572C349.247 79.6313 349.853 44.9104 349.853 28.8985C349.853 16.7397 349.724 21.4919 349.724 19.865C349.724 16.7397 348.988 15.5838 345.091 13.1863C343.749 12.4585 342.407 11.3882 342.407 10.6604C342.407 9.4616 344.052 7.70629 345.394 7.4066C347.646 6.67879 353.663 5.30879 357.56 4.28129C359.681 3.68191 361.153 2.9541 362.062 2.9541C362.798 2.9541 363.577 4.88066 363.577 5.90816C363.577 10.3607 362.841 34.25 362.841 42.6841V53.9438C362.841 58.9957 363.274 60.3229 364.487 60.3229C365.223 60.3229 367.647 58.8244 369.595 57.3688C374.228 53.5157 380.116 47.8644 383.233 44.1825C385.354 41.6566 384.878 40.6291 381.891 39.73C379.509 39.1307 377.821 38.4029 377.821 37.2041C377.821 35.7057 379.942 34.25 381.891 34.25H387.735Z" fill="#4E738A"/>
<path d="M429.124 37.5038C436.614 34.8494 443.844 32.3235 446.398 32.3235C447.004 32.3235 448.043 34.4213 448.043 35.1491V61.9925C448.173 81.4294 448.346 83.7841 448.476 85.1541C448.779 86.4813 449.385 88.1081 454.494 89.4353C456.615 90.1631 458.26 91.5331 458.26 93.16C458.26 94.4872 456.009 95.0866 453.758 95.0866C450.597 95.0866 444.147 94.6585 440.856 94.6585C433.193 94.6585 429.773 95.0866 427.652 95.0866C424.795 95.0866 423.02 94.1875 423.02 92.7319C423.02 91.4047 424.665 90.206 426.786 89.7778C433.237 87.9797 433.54 86.9522 434.146 80.8728C434.449 77.7475 434.882 67.3869 434.882 58.91C434.882 55.956 434.752 48.9775 434.579 48.0785C434.579 47.051 433.237 45.2528 429.037 42.5985C427.998 41.9991 427.219 40.2438 427.219 39.4731C427.176 38.7025 428.388 37.8035 429.124 37.5038ZM445.662 5.00908C447.783 7.23533 448.519 10.3606 448.519 11.3881C448.519 17.8956 442.805 20.2931 439.947 20.2931C437.566 20.2931 434.709 18.966 433.193 16.7397C432.154 15.2413 431.548 14.0853 431.548 11.9875C431.548 6.93564 435.315 3.08252 440.856 3.08252C443.108 3.08252 444.58 3.98158 445.662 5.00908Z" fill="#FF8189"/>
<path d="M555.325 57.4972C549.307 59.7663 535.41 65.6744 534.674 60.0659C534.024 55.3138 546.017 41.2284 548.484 37.7178C551.082 33.9931 559.308 23.4184 551.169 26.715C546.363 28.6416 527.314 51.4606 522.941 48.5922C519.954 46.6228 539.956 19.6081 543.246 12.2444C545.887 6.29343 539.436 6.55031 536.795 9.50437C532.509 14.385 519.608 32.6659 516.231 36.0053C506.62 45.5097 509.347 30.825 509.91 25.345C510.689 17.8956 511.555 10.4891 512.291 3.03968C512.551 0.171244 508.698 -1.58407 506.793 2.22624C502.896 10.1037 494.887 42.3844 489.865 45.2528C487.571 46.3659 486.012 45.0816 484.497 42.2988C483.068 38.7881 482.072 34.8066 481.423 31.0819C480.644 26.6294 478.479 28.6844 477.613 31.1247C472.807 44.6106 472.375 57.4544 474.712 71.0688C475.578 75.7353 479.042 97.5697 511.165 87.9797C522.811 84.5119 545.151 73.8516 558.312 61.8213C559.741 60.4513 562.338 54.8428 555.325 57.4972Z" fill="#F3CE9E"/>
<path d="M0 133.878L1.68844 130.111C3.80982 131.78 7.14341 132.979 10.3904 132.979C14.5033 132.979 16.235 131.523 16.235 129.597C16.235 123.946 0.562814 127.67 0.562814 117.952C0.562814 113.756 3.9397 110.16 11.213 110.16C14.3734 110.16 17.707 110.973 20.0015 112.472L18.443 116.239C16.0618 114.869 13.4642 114.184 11.1697 114.184C7.10011 114.184 5.45497 115.768 5.45497 117.738C5.45497 123.303 21.1272 119.664 21.1272 129.254C21.0839 133.407 17.6637 137.003 10.3904 137.003C6.32083 137.003 2.20796 135.719 0 133.878Z" fill="#847770"/>
<path d="M27.8379 123.557C27.8379 115.765 33.8557 110.114 41.9948 110.114C46.2809 110.114 50.0041 111.655 52.4285 114.481L49.2681 117.435C47.3632 115.38 44.9821 114.395 42.2113 114.395C36.7563 114.395 32.7733 118.205 32.7733 123.557C32.7733 128.908 36.713 132.719 42.2113 132.719C44.9821 132.719 47.3199 131.691 49.2681 129.636L52.4285 132.633C49.9608 135.459 46.2809 137 41.9515 137C33.8557 137 27.8379 131.349 27.8379 123.557Z" fill="#847770"/>
<path d="M84.3786 110.499V136.615H79.4864V125.441H65.8057V136.615H60.9136V110.499H65.8057V121.288H79.4431V110.499H84.3786Z" fill="#847770"/>
<path d="M93.3403 123.557C93.3403 115.851 99.3581 110.114 107.541 110.114C115.723 110.114 121.741 115.765 121.741 123.557C121.741 131.306 115.723 137 107.541 137C99.3581 137 93.3403 131.306 93.3403 123.557ZM116.849 123.557C116.849 118.205 112.909 114.395 107.584 114.395C102.259 114.395 98.3191 118.248 98.3191 123.557C98.3191 128.908 102.259 132.719 107.584 132.719C112.866 132.762 116.849 128.908 116.849 123.557Z" fill="#847770"/>
<path d="M128.885 123.557C128.885 115.851 134.903 110.114 143.085 110.114C151.267 110.114 157.285 115.765 157.285 123.557C157.285 131.306 151.267 137 143.085 137C134.903 137 128.885 131.306 128.885 123.557ZM152.35 123.557C152.35 118.205 148.41 114.395 143.085 114.395C137.76 114.395 133.82 118.248 133.82 123.557C133.82 128.908 137.76 132.719 143.085 132.719C148.41 132.762 152.35 128.908 152.35 123.557Z" fill="#847770"/>
<path d="M166.29 110.499H171.182V132.505H184.993V136.615H166.29V110.499Z" fill="#847770"/>
</g>
<defs>
<clipPath id="clip0">
<rect width="560" height="137" fill="white"/>
</clipPath>
</defs>
</svg>
