<svg width="377" height="384" viewBox="0 0 377 384" fill="none" xmlns="http://www.w3.org/2000/svg">
<path fill-rule="evenodd" clip-rule="evenodd" d="M375.981 173.913C391.148 34.8997 233.356 -12.2262 149.709 2.61732C57.5015 18.9775 10.5931 107.55 1.15895 191.854C-15.576 341.336 152.325 422.865 284.968 365.606C365.655 330.775 375.981 173.913 375.981 173.913Z" fill="#8CA2AF"/>
<path d="M263.442 126.018C254.533 130.973 234.021 143.52 231.548 134.786C229.457 127.4 245.067 102.322 248.129 96.1476C251.368 89.6192 261.836 71.0133 249.807 78.0859C242.726 82.2494 217.982 122.805 210.457 119.23C205.327 116.793 230.572 69.3053 234.043 56.8555C236.845 46.8174 226.718 48.6567 223.303 53.9557C217.688 62.6675 201.593 94.6743 197.048 100.727C184.086 117.985 185.028 94.0862 184.69 85.2211C184.233 73.2217 183.885 61.2192 183.319 49.226C183.1 44.6183 176.589 42.6695 174.479 49.176C170.131 62.583 164.976 115.639 157.758 121.357C154.387 123.672 151.641 121.954 148.658 117.854C145.588 112.62 143.124 106.489 141.249 100.74C139.005 93.8703 136.094 97.5771 135.289 101.659C130.854 124.15 133.12 144.69 139.872 165.77C142.276 172.989 152.746 206.911 201.02 184.385C218.527 176.215 251.234 154.262 269.123 132.161C271.098 129.722 273.868 120.218 263.442 126.018ZM191.488 123.406C193.742 123.406 194.306 125.846 194.306 126.534C194.306 129.036 192.177 129.912 191.175 129.912C189.798 129.912 187.983 128.849 187.983 126.722C187.983 124.845 189.36 123.406 191.488 123.406ZM180.846 123.406C183.1 123.406 183.851 125.846 183.851 126.534C183.851 129.036 181.722 129.912 180.721 129.912C179.343 129.912 177.528 128.849 177.528 126.722C177.528 124.845 179.03 123.406 180.846 123.406ZM206.92 162.135C205.48 162.135 203.414 162.01 201.974 162.01C200.535 162.01 198.656 162.135 197.217 162.135C196.09 162.135 195.401 161.509 195.401 161.009C195.401 160.759 195.714 160.133 196.904 159.758C198.406 159.257 198.844 158.444 198.844 156.942C198.844 153.939 198.844 149.122 198.782 146.557C198.719 144.117 198.531 143.054 197.78 141.927C197.029 140.864 195.589 139.925 193.335 139.925C190.894 139.925 188.64 140.989 188.202 141.427C187.951 141.677 187.576 142.49 187.576 143.241C187.576 152.188 187.701 155.378 187.826 156.817C187.889 158.256 188.577 159.069 189.829 159.507C191.081 159.945 191.52 160.383 191.52 161.071C191.52 161.697 190.706 162.135 189.955 162.135C188.327 162.135 186.198 162.01 184.571 162.01C183.193 162.01 181.441 162.135 180.063 162.135C178.999 162.135 178.123 161.509 178.123 160.946C178.123 160.446 178.749 160.07 179.75 159.695C181.378 159.132 182.004 158.757 182.067 156.254L182.254 144.43C182.317 143.054 181.503 141.865 181.378 141.677C180.502 140.551 178.999 139.738 176.62 139.738C174.429 139.738 172.801 140.426 171.612 141.302C171.487 141.427 170.923 142.678 170.923 142.928C170.923 153.939 170.923 155.253 171.048 156.88C171.174 158.631 171.925 159.069 173.052 159.632C174.241 160.258 174.492 160.633 174.492 161.071C174.492 161.697 173.866 162.198 172.927 162.198C171.424 162.198 169.17 162.01 167.292 162.01C165.852 162.01 164.287 162.323 162.847 162.323C161.658 162.323 160.969 161.76 160.969 161.197C160.969 160.633 161.533 160.258 162.534 159.883C164.913 158.882 165.164 158.381 165.226 156.379C165.352 154.064 165.477 149.122 165.477 143.366C165.477 142.741 165.226 142.053 164.162 141.239C163.035 140.301 162.722 140.051 162.722 139.8C162.722 139.3 163.286 138.549 163.786 138.299C165.164 137.736 166.979 137.048 169.045 135.734C169.483 135.421 169.609 135.358 169.796 135.358C170.235 135.358 170.861 135.984 170.861 136.109C170.861 137.173 170.798 137.548 170.798 138.612C170.798 138.924 171.111 139.175 171.487 138.987C173.114 137.798 176.558 135.796 180.001 135.796C183.694 135.796 185.635 137.736 186.574 139.175C186.637 139.3 187.137 139.487 187.388 139.362C188.515 138.612 190.33 137.36 191.958 136.672C193.335 136.109 194.337 135.796 196.278 135.796C201.849 135.796 203.978 140.864 204.228 145.306C204.416 149.31 204.604 156.004 204.604 157.568C204.604 158.631 205.856 159.382 206.92 159.758C207.734 160.07 208.423 160.446 208.423 161.134C208.423 161.885 207.484 162.135 206.92 162.135Z" fill="white"/>
</svg>
